<svg xmlns="http://www.w3.org/2000/svg" x="0px" y="0px" width="100" height="100" viewBox="0 0 50 50">
    <path d="M 10 3 C 6.1456661 3 3 6.1456661 3 10 L 3 40 C 3 43.854334 6.1456661 47 10 47 L 40 47 C 43.854334 47 47 43.854334 47 40 L 47 10 C 47 6.1456661 43.854334 3 40 3 L 10 3 z M 10 5 L 40 5 C 42.773666 5 45 7.2263339 45 10 L 45 40 C 45 42.773666 42.773666 45 40 45 L 10 45 C 7.2263339 45 5 42.773666 5 40 L 5 10 C 5 7.2263339 7.2263339 5 10 5 z M 18.111328 10 C 17.000328 10 16.059062 10.242563 15.289062 10.726562 C 14.518063 11.210562 13.889391 11.837422 13.400391 12.607422 C 12.911391 13.377422 12.554031 14.240359 12.332031 15.193359 C 12.110031 16.146359 12 17.100687 12 18.054688 C 12 19.037687 12.089578 20.003219 12.267578 20.949219 C 12.445578 21.895219 12.762656 22.742234 13.222656 23.490234 C 13.680656 24.239234 14.295406 24.844641 15.066406 25.306641 C 15.837406 25.768641 16.808516 26 17.978516 26 C 18.792516 26 19.532266 25.857266 20.197266 25.572266 C 20.863266 25.286266 21.437922 24.890766 21.919922 24.384766 C 22.401922 23.877766 22.77125 23.283562 23.03125 22.601562 C 23.29125 21.919562 23.419922 21.180672 23.419922 20.388672 C 23.419922 19.771672 23.324813 19.1645 23.132812 18.5625 C 22.939812 17.9605 22.634703 17.424078 22.220703 16.955078 C 21.776703 16.471078 21.236609 16.086781 20.599609 15.800781 C 19.963609 15.514781 19.311531 15.371094 18.644531 15.371094 C 17.888531 15.371094 17.222531 15.503578 16.644531 15.767578 C 16.067531 16.031578 15.563766 16.471891 15.134766 17.087891 L 15.089844 17.042969 C 15.104844 16.616969 15.162578 16.132844 15.267578 15.589844 C 15.370578 15.045844 15.533859 14.537547 15.755859 14.060547 C 15.978859 13.583547 16.27825 13.179609 16.65625 12.849609 C 17.03425 12.519609 17.502406 12.355469 18.066406 12.355469 C 18.615406 12.355469 19.074313 12.546734 19.445312 12.927734 C 19.815312 13.309734 20.05225 13.756531 20.15625 14.269531 L 23.15625 14.269531 C 23.06725 13.579531 22.882562 12.969406 22.601562 12.441406 C 22.319562 11.913406 21.955719 11.471328 21.511719 11.111328 C 21.067719 10.752328 20.555516 10.475156 19.978516 10.285156 C 19.399516 10.095156 18.778328 10 18.111328 10 z M 32.111328 10 L 25.355469 19.326172 L 25.355469 22.296875 L 31.933594 22.296875 L 31.933594 26 L 34.933594 26 L 34.933594 22.296875 L 37 22.296875 L 37 19.623047 L 34.933594 19.623047 L 34.933594 10 L 32.111328 10 z M 31.867188 14.068359 L 31.935547 14.068359 L 31.935547 19.623047 L 27.845703 19.623047 L 31.867188 14.068359 z M 17.890625 17.724609 C 18.291625 17.724609 18.642312 17.809516 18.945312 17.978516 C 19.248312 18.147516 19.496453 18.367672 19.689453 18.638672 C 19.882453 18.910672 20.026047 19.2175 20.123047 19.5625 C 20.220047 19.9075 20.267578 20.262906 20.267578 20.628906 C 20.267578 20.980906 20.215328 21.324109 20.111328 21.662109 C 20.007328 22.000109 19.851531 22.300453 19.644531 22.564453 C 19.436531 22.828453 19.189391 23.041125 18.900391 23.203125 C 18.611391 23.364125 18.275625 23.445312 17.890625 23.445312 C 17.490625 23.445312 17.133266 23.364125 16.822266 23.203125 C 16.511266 23.042125 16.247203 22.826687 16.033203 22.554688 C 15.818203 22.283688 15.655922 21.975859 15.544922 21.630859 C 15.434922 21.286859 15.378906 20.937938 15.378906 20.585938 C 15.378906 20.204937 15.429203 19.841094 15.533203 19.496094 C 15.637203 19.151094 15.794953 18.846031 16.001953 18.582031 C 16.208953 18.318031 16.471062 18.109078 16.789062 17.955078 C 17.108063 17.801078 17.475625 17.724609 17.890625 17.724609 z M 17.208984 30.152344 L 17.208984 40.148438 L 19.099609 40.148438 L 19.099609 39.224609 L 19.126953 39.224609 C 19.341953 39.625609 19.658125 39.910125 20.078125 40.078125 C 20.498125 40.246125 20.974859 40.330078 21.505859 40.330078 C 21.869859 40.330078 22.228984 40.254469 22.583984 40.105469 C 22.938984 39.956469 23.258969 39.727922 23.542969 39.419922 C 23.827969 39.111922 24.058328 38.717328 24.236328 38.236328 C 24.413328 37.755328 24.501953 37.184484 24.501953 36.521484 C 24.501953 35.858484 24.413328 35.286641 24.236328 34.806641 C 24.059328 34.325641 23.827969 33.931047 23.542969 33.623047 C 23.258969 33.315047 22.937984 33.0865 22.583984 32.9375 C 22.229984 32.7885 21.869859 32.714844 21.505859 32.714844 C 21.058859 32.714844 20.625937 32.799656 20.210938 32.972656 C 19.795938 33.145656 19.466609 33.419969 19.224609 33.792969 L 19.197266 33.792969 L 19.197266 30.152344 L 17.208984 30.152344 z M 25.818359 30.152344 L 25.818359 31.789062 L 27.806641 31.789062 L 27.806641 30.152344 L 25.818359 30.152344 z M 29.90625 30.740234 L 29.90625 32.910156 L 28.701172 32.910156 L 28.701172 34.240234 L 29.90625 34.240234 L 29.90625 38.509766 C 29.90625 38.873766 29.966891 39.168578 30.087891 39.392578 C 30.208891 39.616578 30.375937 39.788156 30.585938 39.910156 C 30.795938 40.031156 31.039453 40.112297 31.314453 40.154297 C 31.588453 40.196297 31.880453 40.21875 32.189453 40.21875 C 32.385453 40.21875 32.586016 40.212125 32.791016 40.203125 C 32.997016 40.193125 33.183563 40.176437 33.351562 40.148438 L 33.351562 38.607422 C 33.257563 38.626422 33.161594 38.641391 33.058594 38.650391 C 32.955594 38.659391 32.847328 38.664062 32.736328 38.664062 C 32.400328 38.664062 32.175453 38.608094 32.064453 38.496094 C 31.952453 38.384094 31.896484 38.160219 31.896484 37.824219 L 31.896484 34.240234 L 33.351562 34.240234 L 33.351562 32.910156 L 31.894531 32.910156 L 31.894531 30.740234 L 29.90625 30.740234 z M 25.818359 32.910156 L 25.818359 40.148438 L 27.806641 40.148438 L 27.806641 32.910156 L 25.818359 32.910156 z M 20.820312 34.212891 C 21.119313 34.212891 21.373984 34.274391 21.583984 34.400391 C 21.793984 34.526391 21.968375 34.697109 22.109375 34.912109 C 22.249375 35.127109 22.352969 35.374297 22.417969 35.654297 C 22.482969 35.934297 22.515625 36.227156 22.515625 36.535156 C 22.515625 36.834156 22.482969 37.124297 22.417969 37.404297 C 22.351969 37.684297 22.249375 37.931484 22.109375 38.146484 C 21.969375 38.361484 21.793984 38.53025 21.583984 38.65625 C 21.373984 38.78225 21.119312 38.845703 20.820312 38.845703 C 20.530313 38.845703 20.278453 38.78225 20.064453 38.65625 C 19.849453 38.53025 19.673203 38.361484 19.533203 38.146484 C 19.393203 37.931484 19.288609 37.684297 19.224609 37.404297 C 19.158609 37.124297 19.126953 36.834156 19.126953 36.535156 C 19.126953 36.227156 19.159609 35.934297 19.224609 35.654297 C 19.289609 35.374297 19.394203 35.127109 19.533203 34.912109 C 19.672203 34.697109 19.849453 34.526391 20.064453 34.400391 C 20.278453 34.274391 20.530313 34.212891 20.820312 34.212891 z"/>
</svg>