<svg xmlns="http://www.w3.org/2000/svg" x="0px" y="0px" width="100" height="100" viewBox="0 0 50 50">
    <path d="M 9 4 C 6.2504839 4 4 6.2504839 4 9 L 4 41 C 4 43.749516 6.2504839 46 9 46 L 41 46 C 43.749516 46 46 43.749516 46 41 L 46 9 C 46 6.2504839 43.749516 4 41 4 L 9 4 z M 9 6 L 41 6 C 42.668484 6 44 7.3315161 44 9 L 44 41 C 44 42.668484 42.668484 44 41 44 L 9 44 C 7.3315161 44 6 42.668484 6 41 L 6 9 C 6 7.3315161 7.3315161 6 9 6 z M 18 9 A 1.0001 1.0001 0 0 0 17.292969 10.707031 L 21.560547 14.974609 C 19.004407 17.188252 17.085557 19.185558 15.882812 21.279297 C 14.541878 23.613597 14 26.084782 14 29 C 14 35.652556 20.370007 41 27.5 41 L 29 41 L 29 39 C 26.965333 39 25.504807 38.371287 24.5 37.291016 C 23.495193 36.210744 22.910156 34.608533 22.910156 32.5 C 22.910156 31.147333 23.798817 29.356631 25.253906 27.605469 C 26.54058 26.05699 28.274447 24.620799 29.958984 23.373047 L 34.292969 27.707031 A 1.0001 1.0001 0 0 0 36 27 L 36 10 A 1.0001 1.0001 0 0 0 35 9 L 18 9 z M 20.414062 11 L 34 11 L 34 24.585938 L 30.707031 21.292969 A 1.0001 1.0001 0 0 0 29.425781 21.181641 C 27.404288 22.596893 25.327207 24.388084 23.716797 26.326172 C 22.106386 28.264259 20.910156 30.352667 20.910156 32.5 C 20.910156 34.62262 21.5368 36.412842 22.570312 37.863281 C 18.785177 36.190518 16 32.810563 16 29 C 16 26.323218 16.458123 24.293091 17.617188 22.275391 C 18.776252 20.257691 20.684485 18.231028 23.640625 15.767578 A 1.0001 1.0001 0 0 0 23.707031 14.292969 L 20.414062 11 z"/>
</svg>