<svg xmlns="http://www.w3.org/2000/svg" viewBox="0 0 64 64" width="256px" height="256px">
    <linearGradient id="qM5XnSAImw23JJK0ZgFvPa" x1="32" x2="32" y1="27.17" y2="35.025" gradientUnits="userSpaceOnUse">
        <stop offset="0" stop-color="#6dc7ff" />
        <stop offset="1" stop-color="#e6abff" />
    </linearGradient>
    <linearGradient id="qM5XnSAImw23JJK0ZgFvPb" x1="32" x2="32" y1="2.915" y2="60.013" gradientUnits="userSpaceOnUse">
        <stop offset="0" stop-color="#1a6dff" />
        <stop offset="1" stop-color="#c822ff" />
    </linearGradient>
    <path
            fill="url(#qM5XnSAImw23JJK0ZgFvPb)"
            d="M54.5,26.5h-1.501c-0.438,0-0.818-0.278-0.945-0.691c-0.467-1.521-1.105-2.985-1.897-4.351 c-0.226-0.389-0.162-0.881,0.156-1.198l1.133-1.134c0.567-0.566,0.879-1.32,0.879-2.122c0-0.801-0.312-1.555-0.879-2.121 l-2.828-2.828c-1.133-1.133-3.11-1.133-4.243,0l-1.281,1.28c-0.312,0.313-0.783,0.381-1.172,0.171 c-1.342-0.726-2.755-1.302-4.201-1.714C37.296,11.671,37,11.279,37,10.839V9c0-1.654-1.346-3-3-3h-4c-1.654,0-3,1.346-3,3v1.839 c0,0.44-0.296,0.832-0.72,0.953c-1.446,0.412-2.859,0.988-4.201,1.714c-0.388,0.209-0.86,0.141-1.173-0.171l-1.28-1.28 c-1.134-1.133-3.11-1.133-4.243,0l-2.829,2.828c-0.567,0.566-0.879,1.32-0.879,2.121c0,0.802,0.313,1.556,0.878,2.121l1.134,1.135 c0.317,0.317,0.381,0.81,0.156,1.198c-0.792,1.365-1.431,2.829-1.897,4.35c-0.127,0.414-0.507,0.692-0.945,0.692H9.5 c-1.654,0-3,1.346-3,3v4c0,1.654,1.346,3,3,3h1.222c0.452,0,0.846,0.303,0.957,0.737c0.419,1.632,1.037,3.211,1.835,4.693 c0.206,0.383,0.135,0.85-0.177,1.161l-0.782,0.782c-0.567,0.566-0.879,1.32-0.879,2.122c0,0.801,0.312,1.555,0.879,2.121 l2.828,2.828c1.133,1.133,3.11,1.133,4.243,0l0.633-0.633c0.318-0.317,0.808-0.382,1.191-0.16c1.526,0.891,3.157,1.584,4.846,2.062 C26.71,52.33,27,52.721,27,53.162V54c0,1.654,1.346,3,3,3h4c1.654,0,3-1.346,3-3v-0.838c0-0.441,0.29-0.832,0.705-0.949 c1.689-0.477,3.32-1.17,4.846-2.06c0.382-0.224,0.873-0.158,1.191,0.159l0.632,0.633c1.134,1.133,3.11,1.133,4.243,0l2.828-2.828 c0.567-0.566,0.879-1.32,0.879-2.121c0-0.802-0.313-1.556-0.878-2.121l-0.783-0.783c-0.312-0.312-0.382-0.778-0.177-1.161 c0.798-1.482,1.416-3.062,1.835-4.693c0.111-0.435,0.505-0.737,0.957-0.737H54.5c1.654,0,3-1.346,3-3v-4 C57.5,27.846,56.154,26.5,54.5,26.5z M55.5,33.5c0,0.552-0.449,1-1,1h-1.222c-1.365,0-2.556,0.921-2.895,2.239 c-0.379,1.476-0.937,2.903-1.659,4.244c-0.627,1.166-0.417,2.582,0.523,3.522l0.784,0.784c0.188,0.188,0.292,0.438,0.292,0.706 c0,0.267-0.104,0.518-0.293,0.707l-2.828,2.828c-0.378,0.377-1.037,0.379-1.415,0l-0.633-0.633 c-0.959-0.959-2.443-1.155-3.613-0.473c-1.38,0.805-2.854,1.432-4.381,1.862C35.889,50.647,35,51.829,35,53.162V54 c0,0.552-0.449,1-1,1h-4c-0.551,0-1-0.448-1-1v-0.838c0-1.333-0.889-2.515-2.162-2.873c-1.527-0.432-3.001-1.059-4.381-1.864 c-0.466-0.271-0.982-0.403-1.496-0.403c-0.774,0-1.541,0.3-2.117,0.877l-0.633,0.633c-0.377,0.379-1.036,0.377-1.414,0 l-2.828-2.828c-0.189-0.189-0.293-0.44-0.293-0.707c0-0.268,0.104-0.518,0.293-0.707l0.782-0.783 c0.941-0.94,1.151-2.356,0.523-3.522c-0.722-1.341-1.28-2.769-1.659-4.244c-0.339-1.318-1.529-2.239-2.895-2.239H9.5 c-0.551,0-1-0.448-1-1v-4c0-0.552,0.449-1,1-1h1.501c1.321,0,2.469-0.846,2.857-2.105c0.422-1.375,1-2.698,1.716-3.933 c0.68-1.173,0.486-2.66-0.471-3.616l-1.135-1.136c-0.188-0.188-0.292-0.438-0.292-0.706c0-0.267,0.104-0.518,0.293-0.707 l2.829-2.828c0.377-0.379,1.036-0.379,1.414,0l1.28,1.28c0.942,0.943,2.365,1.151,3.539,0.517c1.214-0.656,2.492-1.178,3.798-1.55 C28.107,13.351,29,12.168,29,10.839V9c0-0.552,0.449-1,1-1h4c0.551,0,1,0.448,1,1v1.839c0,1.329,0.893,2.512,2.172,2.877 c1.306,0.372,2.583,0.894,3.798,1.55c1.174,0.635,2.596,0.427,3.538-0.517l1.281-1.28c0.377-0.379,1.036-0.377,1.414,0l2.828,2.828 c0.189,0.189,0.293,0.44,0.293,0.707c0,0.268-0.104,0.518-0.293,0.707l-1.133,1.135c-0.958,0.956-1.151,2.443-0.471,3.616 c0.716,1.234,1.293,2.558,1.716,3.934c0.387,1.259,1.535,2.104,2.856,2.104H54.5c0.551,0,1,0.448,1,1V33.5z"
    />
    <linearGradient id="qM5XnSAImw23JJK0ZgFvPc" x1="32" x2="32" y1="2.915" y2="60.013" gradientUnits="userSpaceOnUse">
        <stop offset="0" stop-color="#1a6dff" />
        <stop offset="1" stop-color="#c822ff" />
    </linearGradient>
    <path
            fill="url(#qM5XnSAImw23JJK0ZgFvPc)"
            d="M26,32c0,3.309,2.691,6,6,6s6-2.691,6-6s-2.691-6-6-6S26,28.691,26,32z M32,28 c2.206,0,4,1.794,4,4s-1.794,4-4,4s-4-1.794-4-4S29.794,28,32,28z"
    />
    <linearGradient id="qM5XnSAImw23JJK0ZgFvPd" x1="41" x2="41" y1="2.915" y2="60.013" gradientUnits="userSpaceOnUse">
        <stop offset="0" stop-color="#1a6dff" />
        <stop offset="1" stop-color="#c822ff" />
    </linearGradient>
    <path
            fill="url(#qM5XnSAImw23JJK0ZgFvPd)"
            d="M35.199,16.32c-0.293-0.055-0.599,0.017-0.832,0.206C34.135,16.717,34,17.001,34,17.301 v6.223c0,0.424,0.267,0.802,0.667,0.942c3.143,1.112,5.284,4.098,5.328,7.429c0.004,0.284,0.127,0.553,0.341,0.739l5.305,4.651 c0.185,0.162,0.419,0.248,0.659,0.248c0.09,0,0.18-0.012,0.269-0.037c0.325-0.091,0.583-0.339,0.685-0.661 C47.749,35.269,48,33.642,48,32C48,24.422,42.616,17.827,35.199,16.32z M45.735,34.709l-3.758-3.295 c-0.221-3.742-2.553-7.071-5.978-8.57V18.58c5.862,1.745,10,7.204,10,13.42C46,32.912,45.911,33.818,45.735,34.709z"
    />
    <linearGradient id="qM5XnSAImw23JJK0ZgFvPe" x1="32.222" x2="32.222" y1="2.915" y2="60.013" gradientUnits="userSpaceOnUse">
        <stop offset="0" stop-color="#1a6dff" />
        <stop offset="1" stop-color="#c822ff" />
    </linearGradient>
    <path
            fill="url(#qM5XnSAImw23JJK0ZgFvPe)"
            d="M39.432,37.162c-0.199-0.175-0.458-0.262-0.726-0.246c-0.265,0.018-0.512,0.14-0.687,0.34 C36.496,39,34.302,40,32,40c-2.118,0-4.114-0.821-5.623-2.313c-0.373-0.369-0.968-0.387-1.362-0.041l-4.51,3.955 c-0.205,0.18-0.328,0.436-0.34,0.708s0.088,0.538,0.276,0.734C23.494,46.24,27.599,48,32,48c4.601,0,8.986-1.995,12.032-5.475 c0.364-0.416,0.322-1.047-0.093-1.411L39.432,37.162z M32,46c-3.5,0-6.787-1.273-9.364-3.607l3.029-2.656 C27.449,41.202,29.666,42,32,42c2.544,0,4.982-0.976,6.829-2.707l3.014,2.643C39.225,44.53,35.691,46,32,46z"
    />
    <linearGradient id="qM5XnSAImw23JJK0ZgFvPf" x1="23" x2="23" y1="2.915" y2="60.013" gradientUnits="userSpaceOnUse">
        <stop offset="0" stop-color="#1a6dff" />
        <stop offset="1" stop-color="#c822ff" />
    </linearGradient>
    <path
            fill="url(#qM5XnSAImw23JJK0ZgFvPf)"
            d="M24.034,32.651C24.017,32.436,24,32.22,24,32c0-3.377,2.144-6.404,5.333-7.534 C29.733,24.325,30,23.947,30,23.523v-6.223c0-0.3-0.135-0.584-0.367-0.774c-0.233-0.19-0.538-0.262-0.832-0.206 C21.384,17.827,16,24.422,16,32c0,1.874,0.338,3.739,1.006,5.544c0.114,0.309,0.373,0.542,0.692,0.623 c0.081,0.021,0.164,0.03,0.246,0.03c0.24,0,0.475-0.086,0.659-0.248l5.093-4.466C23.934,33.274,24.059,32.966,24.034,32.651z M18.438,35.434C18.147,34.302,18,33.152,18,32c0-6.216,4.138-11.675,10-13.42v4.264c-3.617,1.579-6,5.173-6,9.156 c0,0.103,0.002,0.204,0.007,0.305L18.438,35.434z"
    />
</svg>