<svg xmlns="http://www.w3.org/2000/svg" x="0px" y="0px" width="100" height="100" viewBox="0 0 50 50">
    <path d="M 25 2 C 12.308594 2 2 12.308594 2 25 C 2 37.691406 12.308594 48 25 48 C 37.691406 48 48 37.691406 48 25 C 48 12.308594 37.691406 2 25 2 Z M 24 4.101563 L 24 13.96875 C 21.175781 13.902344 18.492188 13.554688 16.070313 12.972656 C 17.894531 8.09375 20.765625 4.6875 24 4.101563 Z M 26 4.101563 C 29.234375 4.6875 32.105469 8.09375 33.929688 12.972656 C 31.507813 13.554688 28.824219 13.902344 26 13.96875 Z M 18.46875 5.039063 C 16.679688 6.84375 15.175781 9.371094 14.066406 12.421875 C 12.453125 11.917969 10.996094 11.3125 9.710938 10.625 C 12.09375 8.089844 15.082031 6.144531 18.46875 5.039063 Z M 31.53125 5.039063 C 34.917969 6.144531 37.90625 8.089844 40.285156 10.625 C 39.003906 11.3125 37.546875 11.917969 35.933594 12.421875 C 34.824219 9.371094 33.320313 6.84375 31.53125 5.039063 Z M 8.390625 12.171875 C 9.886719 13.015625 11.574219 13.746094 13.441406 14.328125 C 13.105469 15.496094 12.816406 16.71875 12.59375 18 L 14.667969 18 C 14.875 16.921875 15.132813 15.882813 15.425781 14.886719 C 18.058594 15.53125 20.953125 15.902344 24 15.96875 L 24 18 L 26 18 L 26 15.96875 C 29.046875 15.902344 31.945313 15.535156 34.574219 14.890625 C 34.867188 15.882813 35.125 16.921875 35.332031 18 L 37.40625 18 C 37.183594 16.722656 36.894531 15.5 36.558594 14.332031 C 38.425781 13.746094 40.113281 13.015625 41.609375 12.171875 C 44.164063 15.472656 45.765625 19.546875 45.972656 24 L 41 24 L 41 26 L 45.972656 26 C 45.765625 30.453125 44.164063 34.527344 41.609375 37.828125 C 40.113281 36.984375 38.425781 36.253906 36.558594 35.671875 C 36.894531 34.503906 37.183594 33.28125 37.40625 32 L 35.332031 32 C 35.125 33.078125 34.867188 34.117188 34.574219 35.113281 C 31.941406 34.46875 29.046875 34.097656 26 34.03125 L 26 32 L 24 32 L 24 34.03125 C 20.953125 34.097656 18.054688 34.464844 15.425781 35.109375 C 15.132813 34.117188 14.875 33.078125 14.667969 32 L 12.59375 32 C 12.816406 33.277344 13.105469 34.5 13.441406 35.667969 C 11.574219 36.253906 9.886719 36.984375 8.390625 37.828125 C 5.835938 34.527344 4.234375 30.453125 4.023438 26 L 9 26 L 9 24 L 4.023438 24 C 4.234375 19.546875 5.835938 15.472656 8.390625 12.171875 Z M 35.265625 20 C 34.710938 20 34.203125 20.066406 33.742188 20.199219 C 33.28125 20.328125 32.886719 20.511719 32.546875 20.75 C 32.214844 20.984375 31.953125 21.269531 31.769531 21.609375 C 31.585938 21.945313 31.488281 22.316406 31.488281 22.71875 C 31.488281 23.144531 31.582031 23.515625 31.765625 23.832031 C 31.945313 24.152344 32.191406 24.433594 32.5 24.675781 C 32.804688 24.917969 33.164063 25.128906 33.570313 25.308594 C 33.976563 25.484375 34.402344 25.644531 34.847656 25.78125 C 35.226563 25.90625 35.523438 26.023438 35.75 26.136719 C 35.976563 26.246094 36.152344 26.359375 36.277344 26.480469 C 36.398438 26.597656 36.476563 26.722656 36.515625 26.859375 C 36.554688 26.992188 36.574219 27.140625 36.574219 27.3125 C 36.574219 27.464844 36.546875 27.613281 36.507813 27.746094 C 36.464844 27.878906 36.390625 27.996094 36.292969 28.09375 C 36.1875 28.1875 36.058594 28.261719 35.898438 28.316406 C 35.738281 28.375 35.542969 28.402344 35.3125 28.402344 C 35.03125 28.402344 34.78125 28.375 34.570313 28.316406 C 34.359375 28.261719 34.175781 28.171875 34.03125 28.046875 C 33.890625 27.917969 33.78125 27.75 33.710938 27.546875 C 33.640625 27.34375 33.605469 27.09375 33.605469 26.796875 L 31.191406 26.796875 C 31.191406 27.351563 31.3125 27.828125 31.546875 28.230469 C 31.785156 28.628906 32.097656 28.960938 32.484375 29.222656 C 32.871094 29.488281 33.3125 29.679688 33.804688 29.808594 C 34.296875 29.9375 34.800781 30 35.3125 30 C 35.878906 30 36.390625 29.9375 36.84375 29.816406 C 37.292969 29.695313 37.679688 29.515625 38 29.285156 C 38.316406 29.058594 38.558594 28.777344 38.734375 28.441406 C 38.902344 28.109375 38.988281 27.730469 38.988281 27.300781 C 38.988281 26.898438 38.921875 26.539063 38.785156 26.21875 C 38.648438 25.902344 38.441406 25.617188 38.164063 25.359375 C 37.886719 25.105469 37.539063 24.878906 37.125 24.679688 C 36.714844 24.480469 36.226563 24.296875 35.671875 24.132813 C 35.40625 24.039063 35.160156 23.945313 34.9375 23.84375 C 34.71875 23.746094 34.53125 23.640625 34.375 23.53125 C 34.222656 23.417969 34.101563 23.300781 34.015625 23.171875 C 33.929688 23.039063 33.890625 22.898438 33.890625 22.734375 C 33.890625 22.582031 33.914063 22.433594 33.96875 22.296875 C 34.027344 22.15625 34.109375 22.035156 34.21875 21.9375 C 34.324219 21.835938 34.464844 21.757813 34.628906 21.699219 C 34.796875 21.640625 34.992188 21.609375 35.222656 21.609375 C 35.46875 21.609375 35.675781 21.644531 35.851563 21.714844 C 36.027344 21.78125 36.167969 21.878906 36.28125 22 C 36.394531 22.125 36.476563 22.269531 36.527344 22.441406 C 36.578125 22.613281 36.605469 22.804688 36.605469 23.007813 L 39 23.007813 C 39 22.566406 38.914063 22.160156 38.738281 21.796875 C 38.5625 21.425781 38.316406 21.109375 37.988281 20.84375 C 37.667969 20.582031 37.277344 20.375 36.8125 20.222656 C 36.351563 20.074219 35.839844 20 35.265625 20 Z M 11 20.136719 L 11 29.863281 L 14.125 29.863281 C 14.820313 29.863281 15.453125 29.769531 16.019531 29.589844 C 16.585938 29.40625 17.070313 29.140625 17.472656 28.789063 C 17.878906 28.441406 18.1875 28.011719 18.40625 27.503906 C 18.625 26.996094 18.734375 26.414063 18.734375 25.761719 L 18.734375 24.25 C 18.734375 23.59375 18.621094 23.015625 18.402344 22.503906 C 18.179688 21.992188 17.871094 21.5625 17.46875 21.214844 C 17.070313 20.863281 16.589844 20.59375 16.023438 20.410156 C 15.460938 20.226563 14.832031 20.136719 14.144531 20.136719 Z M 21 20.136719 L 21 29.863281 L 23.3125 29.863281 L 23.3125 23.484375 L 26.6875 29.863281 L 29 29.863281 L 29 20.136719 L 26.699219 20.136719 L 26.699219 26.523438 L 23.3125 20.136719 Z M 13.40625 21.769531 L 14.148438 21.769531 C 14.5625 21.769531 14.910156 21.816406 15.191406 21.90625 C 15.472656 22 15.695313 22.144531 15.863281 22.339844 C 16.035156 22.535156 16.15625 22.789063 16.222656 23.101563 C 16.292969 23.414063 16.328125 23.792969 16.328125 24.238281 L 16.328125 25.761719 C 16.328125 26.203125 16.292969 26.578125 16.222656 26.890625 C 16.15625 27.203125 16.035156 27.460938 15.863281 27.660156 C 15.695313 27.859375 15.46875 28.007813 15.1875 28.097656 C 14.902344 28.1875 14.546875 28.234375 14.125 28.234375 L 13.40625 28.234375 Z M 24 36.03125 L 24 45.902344 C 20.765625 45.3125 17.894531 41.90625 16.070313 37.027344 C 18.492188 36.445313 21.175781 36.097656 24 36.03125 Z M 26 36.03125 C 28.824219 36.097656 31.507813 36.445313 33.929688 37.027344 C 32.105469 41.90625 29.234375 45.3125 26 45.902344 Z M 14.066406 37.578125 C 15.175781 40.628906 16.679688 43.15625 18.46875 44.960938 C 15.082031 43.855469 12.09375 41.910156 9.710938 39.375 C 10.996094 38.6875 12.453125 38.082031 14.066406 37.578125 Z M 35.933594 37.578125 C 37.546875 38.082031 39.003906 38.6875 40.285156 39.375 C 37.90625 41.910156 34.917969 43.855469 31.53125 44.960938 C 33.320313 43.15625 34.824219 40.628906 35.933594 37.578125 Z"/>
</svg>