<svg xmlns="http://www.w3.org/2000/svg" x="0px" y="0px" width="100" height="100" viewBox="0 0 50 50">
    <path d="M 9 4 C 6.2504839 4 4 6.2504839 4 9 L 4 41 C 4 43.749516 6.2504839 46 9 46 L 41 46 C 43.749516 46 46 43.749516 46 41 L 46 9 C 46 6.2504839 43.749516 4 41 4 L 9 4 z M 9 6 L 41 6 C 42.668484 6 44 7.3315161 44 9 L 44 41 C 44 42.668484 42.668484 44 41 44 L 9 44 C 7.3315161 44 6 42.668484 6 41 L 6 9 C 6 7.3315161 7.3315161 6 9 6 z M 24.5 8 C 22.624258 8 21.089721 9.5013185 21.013672 11.359375 C 20.553428 11.135554 20.043399 11 19.5 11 C 17.57619 11 16 12.57619 16 14.5 L 16 26.857422 C 15.805797 26.561546 15.606321 26.251745 15.431641 26 C 15.160132 25.608709 15.030705 25.361519 14.644531 25.044922 C 13.033456 23.595892 10.523015 23.73093 9.0625 25.324219 C 7.5851142 26.935912 7.867883 29.352321 9.2636719 30.875 L 9.2363281 30.845703 C 13.281546 35.640035 15.528216 38.458362 17.970703 40.136719 C 20.41319 41.815079 22.973338 42.152391 27.037109 42 C 33.002735 41.783068 37.937111 37.098764 37.994141 31.103516 A 1.0001 1.0001 0 0 0 38 31 L 38 16.5 C 38 14.57619 36.42381 13 34.5 13 C 33.962198 13 33.45663 13.132048 33 13.351562 L 33 12.5 C 33 10.57619 31.42381 9 29.5 9 C 28.741382 9 28.041974 9.251163 27.466797 9.6660156 C 26.847564 8.6710185 25.750865 8 24.5 8 z M 24.5 10 C 25.37619 10 26 10.62381 26 11.5 L 26 12.5 L 26 23 A 1.0001 1.0001 0 1 0 28 23 L 28 12.5 C 28 11.62381 28.62381 11 29.5 11 C 30.37619 11 31 11.62381 31 12.5 L 31 16.5 L 31 24 A 1.0001 1.0001 0 1 0 33 24 L 33 16.5 C 33 15.62381 33.62381 15 34.5 15 C 35.37619 15 36 15.62381 36 16.5 L 36 31 C 36 35.954545 31.962506 39.818196 26.962891 40 C 23.026662 40.147609 21.136029 39.884924 19.103516 38.488281 C 17.071003 37.091638 14.818454 34.360354 10.763672 29.554688 A 1.0001 1.0001 0 0 0 10.736328 29.523438 C 9.9321171 28.646116 9.8144956 27.464088 10.537109 26.675781 C 11.268223 25.878203 12.534058 25.812795 13.324219 26.537109 A 1.0001 1.0001 0 0 0 13.375 26.580078 C 13.214316 26.451531 13.534391 26.776414 13.787109 27.140625 C 14.039827 27.504836 14.350686 27.97744 14.662109 28.457031 C 14.973533 28.936623 15.286518 29.424211 15.560547 29.832031 C 15.834576 30.239851 16.002977 30.516649 16.292969 30.806641 A 1.0001 1.0001 0 0 0 18 30.099609 L 18 14.5 C 18 13.62381 18.62381 13 19.5 13 C 20.37619 13 21 13.62381 21 14.5 L 21 24 A 1.0001 1.0001 0 1 0 23 24 L 23 14.5 L 23 11.5 C 23 10.62381 23.62381 10 24.5 10 z"/>
</svg>