<svg xmlns="http://www.w3.org/2000/svg" x="0px" y="0px" width="100" height="100" viewBox="0 0 50 50">
    <path d="M 14 3.9902344 C 8.489 3.9902344 4 8.4792344 4 13.990234 L 4 35.990234 C 4 41.501234 8.489 45.990234 14 45.990234 L 36 45.990234 C 41.511 45.990234 46 41.501234 46 35.990234 L 46 13.990234 C 46 8.4792344 41.511 3.9902344 36 3.9902344 L 14 3.9902344 z M 14 5.9902344 L 36 5.9902344 C 40.431 5.9902344 44 9.5592344 44 13.990234 L 44 35.990234 C 44 40.421234 40.431 43.990234 36 43.990234 L 14 43.990234 C 9.569 43.990234 6 40.421234 6 35.990234 L 6 13.990234 C 6 9.5602344 9.569 5.9902344 14 5.9902344 z M 25 11 C 23 11 23.334766 15.415578 23.759766 18.392578 C 24.196766 21.452578 25.232312 26.939156 25.570312 31.035156 C 25.802312 33.850156 23.206266 27.457594 22.447266 25.183594 C 21.243266 21.569594 20.280547 19.54675 19.060547 19.34375 C 18.543547 19.25775 18.051547 19.412203 17.685547 19.783203 C 16.543547 20.940203 17.153625 24.798781 17.265625 25.425781 C 17.603625 27.308781 18.375719 33.074297 18.386719 33.154297 C 18.482719 33.766297 18.536875 34.428891 18.546875 34.962891 C 18.323875 34.606891 18.110703 34.166812 17.970703 33.757812 C 16.031703 25.999812 14.607 26 14 26 C 13.59 26 13.214359 26.171422 12.943359 26.482422 C 12.204359 27.334422 12.402453 29.014156 12.814453 31.910156 C 12.956453 32.904156 13.091953 33.844781 13.126953 34.550781 C 13.168953 35.391781 13.005078 35.682 12.955078 35.75 L 11 35.75 L 11 37.75 L 12.820312 37.75 C 12.864313 37.754 12.917516 37.757812 12.978516 37.757812 C 13.290516 37.757813 13.794719 37.679578 14.261719 37.267578 C 14.898719 36.707578 15.188047 35.760219 15.123047 34.449219 C 15.083047 33.651219 14.943875 32.669906 14.796875 31.628906 C 14.707875 31.007906 14.382625 29.547313 14.515625 29.445312 C 14.847625 29.134313 15.585734 32.456453 16.052734 34.314453 C 16.204734 34.769453 17.036594 37.065266 18.558594 37.572266 C 19.025594 37.730266 19.506094 37.643937 19.871094 37.335938 C 20.570094 36.743938 20.735234 35.231234 20.365234 32.865234 C 20.333234 32.627234 19.794453 27.301422 19.564453 25.357422 C 19.379453 23.789422 19.866734 23.760406 20.552734 25.816406 C 21.337734 28.168406 23.729266 33.780094 23.822266 33.996094 C 24.954266 36.825094 25.658859 37.224891 26.005859 37.337891 C 26.366859 37.455891 26.759406 37.422219 27.066406 37.199219 C 28.227406 36.354219 28.695953 34.701 28.001953 31 C 27.252953 27.005 26.376953 20.882891 26.376953 19.962891 C 26.376953 17.962891 26.746469 19.004906 27.105469 20.128906 C 28.288469 23.826906 29.866 29.977 31 33 C 31.385 34.023 33 38 35 38 C 37 38 37.271 34.988 37 32 C 35.927 20.183 40 24 40 24 L 39 20 C 37.47 19.662 35.915 20.157 35 21 C 33.1 22.752 32.823484 25.56175 33.271484 29.84375 C 32.803484 28.78375 30.765 23.059 30 20 C 28 12 27 11 25 11 z"/>
</svg>