<svg xmlns="http://www.w3.org/2000/svg" x="0px" y="0px" width="100" height="100" viewBox="0 0 50 50">
    <path d="M 7 4 C 5.3550302 4 4 5.3550302 4 7 L 4 43 C 4 44.64497 5.3550302 46 7 46 L 43 46 C 44.64497 46 46 44.64497 46 43 L 46 7 C 46 5.3550302 44.64497 4 43 4 L 7 4 z M 7 6 L 43 6 C 43.56503 6 44 6.4349698 44 7 L 44 43 C 44 43.56503 43.56503 44 43 44 L 7 44 C 6.4349698 44 6 43.56503 6 43 L 6 7 C 6 6.4349698 6.4349698 6 7 6 z M 24.984375 7.9863281 A 1.0001 1.0001 0 0 0 24 9 L 24 22.175781 A 3 3 0 0 0 22.294922 26.291016 L 16.292969 32.292969 A 1.0001 1.0001 0 1 0 17.707031 33.707031 L 23.707031 27.707031 A 3 3 0 0 0 25 28 A 3 3 0 0 0 26 22.171875 L 26 9 A 1.0001 1.0001 0 0 0 24.984375 7.9863281 z"/>
</svg>